<?xml version="1.0" encoding="UTF-8"?>
<svg xmlns="http://www.w3.org/2000/svg" viewBox="0 0 520 64" width="520" height="64">
  <defs>
    <linearGradient id="redGrad" x1="0" y1="0" x2="1" y2="1">
      <stop offset="0%" stop-color="#9F1239"/>
      <stop offset="100%" stop-color="#881337"/>
    </linearGradient>
  </defs>

  <!-- Icon: seeker target -->
  <g transform="translate(6,4)">
    <circle cx="28" cy="28" r="20" fill="none" stroke="url(#redGrad)" stroke-width="3"/>
    <circle cx="28" cy="28" r="11" fill="url(#redGrad)"/>
    <circle cx="28" cy="28" r="4" fill="#FFFFFF"/>
    <line x1="28" y1="2" x2="28" y2="11" stroke="url(#redGrad)" stroke-width="3.2" stroke-linecap="round"/>
    <line x1="28" y1="45" x2="28" y2="54" stroke="url(#redGrad)" stroke-width="3.2" stroke-linecap="round"/>
    <line x1="2" y1="28" x2="11" y2="28" stroke="url(#redGrad)" stroke-width="3.2" stroke-linecap="round"/>
    <line x1="45" y1="28" x2="54" y2="28" stroke="url(#redGrad)" stroke-width="3.2" stroke-linecap="round"/>
  </g>

  <!-- Wordmark -->
  <text x="86" y="42" font-family="Georgia, 'Times New Roman', serif"
        font-size="34" font-weight="700" letter-spacing="-0.8"
        fill="#17130E">SmartSeek</text>

  <!-- Period accent -->
  <circle cx="230" cy="38" r="3.6" fill="#9F1239"/>

  <!-- System tagline -->
  <text x="86" y="56" font-family="'JetBrains Mono', ui-monospace, monospace"
        font-size="8.2" font-weight="400" letter-spacing="3.4"
        fill="#8C8478">RANK BY TOTAL PAID</text>

  <!-- Side marks -->
  <g transform="translate(254,16)">
    <line x1="0" y1="6" x2="18" y2="6" stroke="#9F1239" stroke-width="2"/>
    <text x="22" y="10" font-family="'JetBrains Mono', ui-monospace, monospace" font-size="9" fill="#9F1239">smartseek.com</text>
  </g>
  <g transform="translate(254,28)">
    <line x1="0" y1="6" x2="18" y2="6" stroke="#9F1239" stroke-width="2"/>
    <text x="22" y="10" font-family="'JetBrains Mono', ui-monospace, monospace" font-size="9" fill="#9F1239">ihalezeka.com</text>
  </g>
  <g transform="translate(254,40)">
    <line x1="0" y1="6" x2="18" y2="6" stroke="#9F1239" stroke-width="2"/>
    <text x="22" y="10" font-family="'JetBrains Mono', ui-monospace, monospace" font-size="9" fill="#9F1239">ortaq.biz</text>
  </g>
  <g transform="translate(410,16)">
    <line x1="0" y1="6" x2="18" y2="6" stroke="#9F1239" stroke-width="2"/>
    <text x="22" y="10" font-family="'JetBrains Mono', ui-monospace, monospace" font-size="9" fill="#9F1239">7stories.com</text>
  </g>
  <g transform="translate(410,28)">
    <line x1="0" y1="6" x2="18" y2="6" stroke="#9F1239" stroke-width="2"/>
    <text x="22" y="10" font-family="'JetBrains Mono', ui-monospace, monospace" font-size="9" fill="#9F1239">@Dalyanoo</text>
  </g>
</svg>
